<?xml version="1.0" encoding="UTF-8"?>
<svg width="16" height="16" viewBox="0 0 16 16" xmlns="http://www.w3.org/2000/svg">
    <path d="M8 8.5a1 1 0 1 1 0-2 1 1 0 0 1 0 2zm4.2-2.9c-.3-.5-.7-1-1.2-1.4.2-.7.3-1.4.2-2-.1-.8-.5-1.4-1.2-1.6-.7-.2-1.4.1-2 .7-.6-.6-1.3-.9-2-.7-.7.2-1.1.8-1.2 1.6-.1.6 0 1.3.2 2-.5.4-.9.9-1.2 1.4-.5.8-.7 1.6-.4 2.4.2.7.8 1.1 1.6 1.2.6.1 1.3 0 2-.2.4.5.9.9 1.4 1.2.8.5 1.6.7 2.4.4.7-.2 1.1-.8 1.2-1.6.1-.6 0-1.3-.2-2 .5-.4.9-.9 1.2-1.4.5-.8.7-1.6.4-2.4-.2-.7-.8-1.1-1.6-1.2-.6-.1-1.3 0-2 .2zM8 11c-.7-.4-1.3-.9-1.7-1.4-.4-.5-.7-1.1-.8-1.7-.1-.6-.1-1.1.1-1.6.2-.5.5-.8.9-.9.4-.1.9 0 1.4.2.5.2 1 .6 1.4 1 .4-.4.9-.8 1.4-1 .5-.2 1-.3 1.4-.2.4.1.7.4.9.9.2.5.2 1 .1 1.6-.1.6-.4 1.2-.8 1.7-.4.5-1 1-1.7 1.4-.4.3-.8.4-1.3.4-.5 0-.9-.1-1.3-.4z" fill="#C5C5C5"/>
</svg>
